<svg id="Layer_1" data-name="Layer 1" xmlns="http://www.w3.org/2000/svg" viewBox="0 0 1920 1080"><defs><style>.cls-1{fill:#fff;}.cls-2{fill:none;stroke:#ee7526;stroke-miterlimit:10;}.cls-3{fill:#ee7526;}.cls-4{opacity:0.14;}.cls-5{fill:#d35b18;}.cls-6{fill:#191919;}.cls-7{fill:#fcd4b1;}.cls-8{fill:#f2af91;}.cls-9{fill:#262f6a;}.cls-10{fill:#0c0c0c;}.cls-11{fill:#1e2854;}.cls-12{fill:#36251f;}.cls-13{fill:#f4ece1;}.cls-14{fill:#d8a47d;}</style></defs><title>Untitled-1</title><rect class="cls-1" width="1920" height="1080"/><polyline class="cls-2" points="1445.5 525.5 1680.5 835.5 1935.5 530.5 1687.5 241.5 1940.5 -11.5"/><polygon class="cls-2" points="232 0 232 242 546 526 1445.5 526 1687.5 241.5 1687.5 -0.5 985.5 303.5 232 0"/><polyline class="cls-2" points="-33 -24 232.5 241.5 -4.5 529.5 296.96 872.42 546.5 525.5 986.5 932.5 1445.5 525.5"/><polyline class="cls-2" points="986 302 986 932 1628 932 213 932 1646 932"/><circle class="cls-3" cx="986.5" cy="526.5" r="8.5"/><circle class="cls-3" cx="985.5" cy="302.5" r="8.5"/><circle class="cls-3" cx="546" cy="526" r="8.5"/><circle class="cls-3" cx="232.5" cy="242" r="8.5"/><circle class="cls-3" cx="232.5" r="8.5"/><circle class="cls-3" cx="1445" cy="526" r="8.5"/><circle class="cls-3" cx="1687.5" cy="242" r="8.5"/><circle class="cls-3" cx="1687.5" r="8.5"/><circle class="cls-3" cx="986.5" cy="932.5" r="8.5"/><path class="cls-4" d="M1863,790.5a50.4,50.4,0,0,0-19.74-40c-7.35-24.75-18.44-47.82-34.08-66.6a50.53,50.53,0,0,0-42.42-33.59c-16-7.75-35.46-10.48-56.76-11.27l-25,1,1-18s37-21,31-42l3-31s14,4,18-9-11-23-11-23,11-10,10-18-20-14-29-3c0,0-25-29-56-29,0,0-14-37-24-20v711h121l12-116s43-37,40-83c0,0,54-33,54-123,0-5.79-.15-11.64-.46-17.52A50.27,50.27,0,0,0,1863,790.5Z"/><path class="cls-5" d="M1726,657.72s32.3-12.18,53.52,1.72,30.77,53.37,30.77,53.37l-64.11,1.42Z"/><path class="cls-5" d="M1778.06,758.37s51.29-42.66,66.86,5.36c16.77,51.73-10.36,84.35-10.36,84.35l-36.33-33.21Z"/><path class="cls-3" d="M1665.61,652.67s75.26-45,140.72,54,33.37,222.26-19.47,255.26-116.37-3.15-116.37-3.15Z"/><path class="cls-6" d="M1514.92,995.46s-24.36,264.82,14,301.13c15.34,14.51,61.47,17.26,76.31-10.73,23.32-44,27.76-152.58,28.3-210.26Z"/><path class="cls-6" d="M1739.88,1016.9s18.07,215.39,6.62,267.28c-2.67,12.08-66.15,13.71-82.26-7.55-31.76-41.9-44.15-138-49.13-200.4Z"/><path class="cls-7" d="M1573.35,732.18c0,.19-.09.36-.14.54l-.12.45-2.43,9-2.41,9.12-4.73,18.3q-4.66,18.31-9,36.66-1.67,7-3.29,14-1.85,8-3.61,16c-.48,2.2-1,4.39-1.43,6.59-2.62,12.17-5.07,24.32-7.15,36.27-1,6-2,11.91-2.74,17.63-.21,1.45-.35,2.83-.53,4.24l-.24,2.08-.19,1.92-.19,1.91c0,.64-.08,1.31-.13,2-.08,1.31-.2,2.59-.23,3.94a213.31,213.31,0,0,0,1.45,33.26,329.47,329.47,0,0,0,5.91,34.49c1.29,5.76,2.72,11.51,4.26,17.21.78,2.85,1.58,5.69,2.41,8.48l1.27,4.14,1.2,3.71.35,1.11a30.2,30.2,0,0,1-19,38,29.68,29.68,0,0,1-37.15-18.26l-1-2.8-.89-2.53-1.67-5c-1.08-3.29-2.1-6.56-3.1-9.85-2-6.56-3.81-13.14-5.49-19.8a395.32,395.32,0,0,1-8.15-40.75c-1-7-1.79-14-2.32-21.2s-.8-14.48-.68-21.95c0-1.85.09-3.75.16-5.63,0-1,.06-1.88.12-2.83l.19-2.86.2-2.86c.08-.93.17-1.78.26-2.67.18-1.76.33-3.56.54-5.27.76-7,1.71-13.64,2.71-20.29,2-13.25,4.36-26.18,6.83-39,.6-3.06,1.19-6.1,1.8-9.14s1.18-5.87,1.79-8.79c1.39-6.79,2.82-13.54,4.27-20.3q4.11-19,8.51-37.86l4.46-18.87,2.28-9.43,2.35-9.53a33.36,33.36,0,0,1,40.5-24.59A33.84,33.84,0,0,1,1573.35,732.18Z"/><path class="cls-8" d="M1551.18,820.29q-1.85,8-3.61,16l-62.66-15.74c.59-2.94,1.18-5.87,1.79-8.79Z"/><path class="cls-9" d="M1575.27,736.39l-17.7,92.48-80.23-14.64s13.91-97.31,37.15-116.43c12.87-10.59,24.55-13.26,38.6-6.59C1569.85,699.16,1578.79,718,1575.27,736.39Z"/><path class="cls-6" d="M1516.19,983.32s-8.7,71.51.32,99.62,200.74,45,212,18.17c21.76-51.7,9.81-108.54,9.81-108.54C1652.31,1016.47,1580.12,1008.8,1516.19,983.32Z"/><path class="cls-10" d="M1619.2,997.08v2.4c0,21.35.09,51.56.77,82.37,0,1.7.07,3.41.1,5.11.24,9.82.53,19.67.89,29.26a2.46,2.46,0,0,0,2.51,2.37h0a2.45,2.45,0,0,0,2.34-2.57c-.35-9.26-.62-18.75-.85-28.23,0-1.67-.09-3.34-.12-5-.68-31-.81-61.47-.78-83v-2.9Z"/><path class="cls-10" d="M1639.19,996.25c0,1.32,0,2.66,0,4-.17,27.93-.56,67.47-1.49,76.84a5.53,5.53,0,0,1-2.56,4.57c-2.47,1.52-6.35,1.6-10.26,1.07a49.77,49.77,0,0,1-4.89-.93,55,55,0,0,1-6.9-2.14,2.44,2.44,0,0,0-3.16,1.4,2.48,2.48,0,0,0,1.39,3.2,61.46,61.46,0,0,0,8.77,2.65,47.82,47.82,0,0,0,4.91.83,32.9,32.9,0,0,0,4.65.21,16.09,16.09,0,0,0,8-2.08,10.48,10.48,0,0,0,4.87-8.28c1-9.67,1.37-49.27,1.52-77.27,0-1.48,0-2.91,0-4.33Z"/><path class="cls-9" d="M1746,821.23c-.33,4.26-.54,9.51-.68,15.57q-.07,3.12-.14,6.5c-.33,18.85-.27,43.63-1,69.37-.07,2.3-.14,4.63-.23,7-1.84,55.4,15,74-7.81,80.25-138.77,38.12-197.3,8.13-214.9-4.67-19.43-14.14-9.17-74.47-5.1-145.27.14-2.39.26-4.74.4-7,1.07-19.27,1.81-35.07,1.48-44.27-1.59-42.78,2.08-88.61,7.61-108.41s75.27-38.26,75.27-38.26l78.16.1s25.16,13.6,54.28,41.88S1749.4,776.1,1746,821.23Z"/><polyline class="cls-11" points="1594.46 765.49 1563.89 825.62 1594.22 826.5 1570.33 870.34 1645 807.19 1606.7 802.43 1641.99 767.24 1594.46 765.49 1594.46 765.49"/><path class="cls-3" d="M1583.8,657.07s-10.07,88.17-16.68,126.58a258.82,258.82,0,0,1-33,88.69,270.29,270.29,0,0,1-21.8,30c-2,.3-8.33-22.85,4-55.69,22.69-60.52,37.79-167.76,45.08-181.49S1583.8,657.07,1583.8,657.07Z"/><path class="cls-5" d="M1546.51,730.63c6.07-1.33,15.69-2.78,25.11-1.46a7.78,7.78,0,0,1,6.58,8.6c-1.17,10.7-3.74,31.37-7.34,44.4a7.71,7.71,0,0,1-8.49,5.62l-21.18-3a7.8,7.8,0,0,1-6.4-9.64c2.3-9.25,5.56-24.47,5.64-37A7.77,7.77,0,0,1,1546.51,730.63Z"/><path class="cls-11" d="M1668.67,708a97.85,97.85,0,0,1-54.09-13.81c-17.4-10.29-26.86-22.43-27.26-22.94a2.36,2.36,0,0,1,.4-3.29,2.29,2.29,0,0,1,3.25.4c.37.48,37.39,47.28,97.84,31.93a2.3,2.3,0,0,1,2.81,1.7,2.35,2.35,0,0,1-1.68,2.85A103.45,103.45,0,0,1,1668.67,708Z"/><path class="cls-3" d="M1718.08,675.32s-36.18,24.78-43.27,75,29.71,117.36,69.33,135.27c0,0,7.27,16.11-.24,36.34,0,0-84.85-22.36-96.9-129.76S1694,665,1694,665C1701.42,662.51,1713.51,669.21,1718.08,675.32Z"/><path class="cls-5" d="M1673.66,734.55c-5.46-2.16-14.21-5-23.19-5.19a7.3,7.3,0,0,0-7.4,7c-.5,10.15-1.18,29.8.24,42.49a7.3,7.3,0,0,0,7.08,6.53l20.18.43a7.33,7.33,0,0,0,7.4-8c-.77-9-1.55-23.64.23-35.31A7.35,7.35,0,0,0,1673.66,734.55Z"/><path class="cls-11" d="M1517.74,822.19h-.07a1.6,1.6,0,0,1-1.6-1.63c0-.57.22-57.94,5.43-92.09a1.6,1.6,0,1,1,3.17.49c-5.16,33.92-5.39,91-5.39,91.61A1.62,1.62,0,0,1,1517.74,822.19Z"/><path class="cls-11" d="M1520.34,750.64a1.61,1.61,0,0,1-1.57-1l-4.55-12.3a1.64,1.64,0,0,1,.94-2.1,1.6,1.6,0,0,1,2.07,1l4.55,12.3a1.63,1.63,0,0,1-.94,2.09A1.27,1.27,0,0,1,1520.34,750.64Z"/><path class="cls-11" d="M1676.62,988.52c-30.34,3.2-62.46-7.45-94.2-31.48a263.07,263.07,0,0,1-49.88-50.36,2.28,2.28,0,0,1,.5-3.15,2.22,2.22,0,0,1,3.11.52,258.58,258.58,0,0,0,49,49.44c27.15,20.54,68.94,41.59,113.86,25.24a2.24,2.24,0,0,1,2.85,1.36,2.26,2.26,0,0,1-1.35,2.88A100.47,100.47,0,0,1,1676.62,988.52Z"/><path class="cls-11" d="M1646.36,959a2.09,2.09,0,0,1-.5,0c-37.47-4.46-71.18-48.86-72.6-50.75a2.28,2.28,0,0,1,.43-3.16,2.2,2.2,0,0,1,3.11.43c.34.45,34,44.77,69.58,49a2.25,2.25,0,0,1,0,4.47Z"/><path d="M1587.46,528s3.3-21.69-2.87-39.32c-6.07-17.34-6.49-27.84-3.28-31.1,10.11-10.25,21,13.21,21,13.21s-3.68-22.07,5.39-23.08S1624,467.91,1624,467.91s-3-31.43,9.22-25.06,17.43,27.21,17.43,27.21,41.19,5.2,57.37,32.37c0,0,11.77-13.8,20.11-6.29s-7.79,21.16-7.79,21.16,13.14,8,11.66,20.32-17,4.57-17,4.57,5.22,65.42-49,85.72S1587.46,528,1587.46,528Z"/><path class="cls-7" d="M1607.2,635.28l-1.83,20a57.55,57.55,0,0,0,6.08,5.56c30.13,23.81,67,1.31,67,1.31l6.34-69.14-68.38,37.28Z"/><path class="cls-12" d="M1607.2,635.28l-1.83,20a57.55,57.55,0,0,0,6.08,5.56c28.34-9.11,51-38.18,51-38.18l-46,7.63Z"/><path class="cls-8" d="M1592.49,559.05s-9.33-13.53-16.4-1.54-4.84,37.79,11.49,35.14Z"/><path class="cls-7" d="M1578.34,593.4s-2.69,39,37,42.68c39.44,3.63,67.23-17,68.76-18.35l.05,0,1.18-8.08,6.1-41.94,3.27-22.42s8.75-40.09-28.63-51.07c-27.31-8-53.82-5.8-68.32,7.66-.47.43-.93.88-1.36,1.34a35,35,0,0,0-9.22,18.19l-4.94,40.36-1.21,9.89Z"/><path class="cls-13" d="M1636.23,582.3s-5,16.92-18.61,19.77c-15.48,3.25-19.12-16.37-19.12-16.37Z"/><path class="cls-8" d="M1612,608.15c-.54-.15-.87-.28-.93-.3a1.29,1.29,0,0,1-.7-1.67,1.26,1.26,0,0,1,1.65-.71,8.08,8.08,0,0,0,8-1.36,1.26,1.26,0,0,1,1.79.12,1.3,1.3,0,0,1-.13,1.82A10.37,10.37,0,0,1,1612,608.15Z"/><path class="cls-12" d="M1635.39,555.75c-.35,3.86,1.09,7.16,3.22,7.36s4.16-2.77,4.51-6.64-1.09-7.16-3.22-7.36S1635.74,551.88,1635.39,555.75Z"/><path class="cls-12" d="M1597.65,552.2c-.35,3.86,1.09,7.16,3.23,7.36s4.15-2.77,4.5-6.64-1.09-7.15-3.22-7.36S1598,548.33,1597.65,552.2Z"/><path class="cls-12" d="M1615.23,573.85c-9.3-.88-11.84-7.75-11.94-8a1.61,1.61,0,0,1,.14-1.37c7.59-12.71,15.31-25.78,15.38-25.91A1.58,1.58,0,0,1,1621,538a1.61,1.61,0,0,1,.54,2.19c-.08.13-7.5,12.72-15,25.21.77,1.42,3.18,4.76,9,5.3a1.6,1.6,0,0,1-.29,3.18Z"/><path d="M1651.78,509.1a9.32,9.32,0,0,1,8.1,8.46c.22,3.12,1.81,7,6.73,10.8,11.49,9,8.31,19.59,4.7,28.28s12.56,26.9,25.41,5.66,7.18-69.06-25.16-74.35-76.34,1.36-81.31,15.94a76,76,0,0,0-3.91,27.56s5.68-4.06,6.13-13.47,7.18-12.49,18.08-13C1618,504.72,1639.1,507.38,1651.78,509.1Z"/><path class="cls-8" d="M1581,571.62c1,.19,2,.34,3.06.44,7,.66,13-1.09,13.24-3.9s-5.26-5.63-12.31-6.3c-1-.09-1.88-.13-2.78-.13Z"/><path class="cls-8" d="M1633.51,571.57c-.25,2.81,5.26,5.63,12.31,6.29s13-1.08,13.25-3.89-5.26-5.63-12.31-6.29S1633.77,568.75,1633.51,571.57Z"/><path d="M1658.1,538.19h0a9,9,0,0,1-12.15,3.52,49.32,49.32,0,0,0-8.71-3.83,8.42,8.42,0,0,1-5.28-11h0S1650.59,527,1658.1,538.19Z"/><path d="M1586.34,531.45h0a9,9,0,0,0,11.3,5.71,50,50,0,0,1,9.26-2.14,8.37,8.37,0,0,0,7.18-9.77h0S1595.77,521.79,1586.34,531.45Z"/><path class="cls-12" d="M1673.11,600.88c.14.45,4.08,12.72,11,16.85l0,0,1.17-8.08S1679.15,607.94,1673.11,600.88Z"/><path class="cls-7" d="M1682.56,574.7s17.15-19.32,26.83-2c8,14.31-12.64,47.69-29.77,34Z"/><path class="cls-12" d="M1682.28,600.66l-.17,0a1.61,1.61,0,0,1-1.23-1.89,29.67,29.67,0,0,1,19.39-22.39,1.57,1.57,0,0,1,2,1.08,1.6,1.6,0,0,1-1.06,2h0a26.48,26.48,0,0,0-17.2,20A1.57,1.57,0,0,1,1682.28,600.66Z"/><path class="cls-12" d="M1697.81,592.4a1.58,1.58,0,0,1-1-.44c-1.26-1.25-5.14-4.4-7.91-4a1.59,1.59,0,0,1-.5-3.15c4.82-.78,10,4.24,10.62,4.81a1.61,1.61,0,0,1,0,2.26A1.51,1.51,0,0,1,1697.81,592.4Z"/><path class="cls-7" d="M1800.62,904.24l0,1.5c.06,2,0,4,0,6-.09,3.95-.35,7.83-.73,11.65a180.22,180.22,0,0,1-10,42.76,239.7,239.7,0,0,1-17.37,37.34c-3.3,5.86-6.89,11.52-10.61,17.08q-2.82,4.15-5.81,8.23c-1,1.37-2,2.72-3.09,4.09l-1.62,2.06-1.88,2.34a24.85,24.85,0,0,1-35,5.66,25.61,25.61,0,0,1-5.59-35.48s0-.1.08-.22l.2-.37.42-.81.89-1.72,1.8-3.59c1.21-2.41,2.38-4.88,3.52-7.36,2.32-5,4.42-10,6.42-15.06a213,213,0,0,0,9.5-30.3,137.81,137.81,0,0,0,2.64-14.74c.28-2.42.51-4.79.68-7.13s.22-4.64.22-6.88-.09-4.46-.28-6.59c-.1-1.07-.2-2.13-.33-3.16l-.44-3.67c-.64-5.19-1.44-10.59-2.43-16.11s-2.07-11.09-3.25-16.73-2.4-11.31-3.69-17-2.72-11.59-4.14-17.41q-1.29-5.33-2.65-10.66-.76-3.1-1.58-6.22l-4.48-17.2-4.64-17.21-4.72-17.2L1698,753.16l-.15-.54A37.19,37.19,0,0,1,1723,706.77a36.58,36.58,0,0,1,45.26,25.58v0l2.56,9.17c.83,3,1.61,6,2.41,9,1.59,6,3.08,12,4.57,18.07s2.91,12.07,4.29,18.14,2.76,12.14,4,18.25c.49,2.29,1,4.59,1.44,6.89q1.47,7.2,2.87,14.47,1.49,7.77,2.83,15.62c1.06,6.25,2.09,12.51,3,18.86s1.74,12.77,2.45,19.31,1.29,13.21,1.66,20.13l.13,2.62Z"/><path class="cls-8" d="M1790.48,826.39l-69.71,12.2q-1.29-5.33-2.65-10.66l69.49-16Q1789.08,819.12,1790.48,826.39Z"/><path class="cls-9" d="M1692.15,745.43,1718,835.94l78.61-21.87s-22.46-95.65-47.3-112.59c-13.75-9.37-25.62-11-39-3.06C1694.25,707.86,1687,727.42,1692.15,745.43Z"/><path class="cls-11" d="M1718.7,831.56a1.62,1.62,0,0,1-1.62-1.19L1698,761.63a1.63,1.63,0,0,1,1.11-2,1.6,1.6,0,0,1,2,1.13l19.1,68.74a1.63,1.63,0,0,1-1.11,2Z"/><path class="cls-11" d="M1704.27,779.61a1.6,1.6,0,0,1-.92-.25l-10.23-6.48a1.65,1.65,0,0,1-.51-2.25,1.59,1.59,0,0,1,2.21-.51l10.23,6.48a1.64,1.64,0,0,1,.51,2.25A1.59,1.59,0,0,1,1704.27,779.61Z"/><path class="cls-7" d="M1734.17,1089.29c-13.67-10.8-27.79-21.53-40.37-33.75,0-.11.07-.17.07-.17l-.14.1a177.57,177.57,0,0,1-13.45-14.52c1-2.17,2-4,2.69-5.5,3.41-6.61,11.89-16.07,18.55-21,5-3.73,9.54-10.7,14.25-11.19,14.91-1.57,34.63,10.39,34.93,18.35.43,11.72-4.66,35.43-5.82,44.33-.47,3.59-3.08,14.89-6.33,26.81Z"/><path class="cls-10" d="M1743.8,1096.82a3.17,3.17,0,0,0-1.08-2.26l-64.13-55.84a3,3,0,0,0-4.17.16l0,0a3.15,3.15,0,0,0,.16,4.56l64.14,55.84a3.1,3.1,0,0,0,5.12-2.51Z"/><path class="cls-7" d="M1532.29,1000.7s-6.23,56.77-16.35,71c0,0-26.73-25.93-16.34-69.41C1506.56,973.07,1532.29,1000.7,1532.29,1000.7Z"/><path class="cls-4" d="M155.31,1122.69,157,1029s-17-8-8-47c0,0-42,16-51-36,0,0-19,3-13-39,0,0-35-22-5-74,0,0-14-10-5-58,0,0-27-16,5-42,0,0-14-64,45-75s70,0,70,0l11-5s1-23-5-29c0,0-79-39-46-119l82,99v519Z"/><path class="cls-5" d="M87.42,726s-12.14,9.25-14.91,19.18,2.06,19.39,9.35,20.63c0,0-3.66,43.08,1.68,53.78S103,818.39,103,818.39,92.71,742.66,87.42,726Z"/><path class="cls-5" d="M98.29,838.2s-12.15,9.25-14.92,19.18,2.06,19.39,9.35,20.63c0,0-3.66,43.08,1.68,53.77s19.44-1.22,19.44-1.22S103.57,854.84,98.29,838.2Z"/><path class="cls-3" d="M90.64,689.33s-12.18,8.83.68,92-6,147.18,30.46,180.95,126.83-41.06,126.83-41.06l-49.2-265.43C161.45,639.56,102.87,656.53,90.64,689.33Z"/><path class="cls-5" d="M160.17,954.16c-8.52.53-17.64-.54-25.28-5.2-9.46-5.78-15.58-20.4-18.71-44.7-2.65-20.65-2.75-44.62-2.84-65.78,0-11.78-.1-22.91-.63-31.31-2.32-37-20.3-103-20.48-103.68a1.27,1.27,0,0,1,2.45-.67c.18.67,18.23,66.88,20.57,104.19.53,8.47.58,19.64.63,31.46.17,40.58.4,96.15,20.33,108.32,14,8.52,33.51,4.19,43.91.84,18.17-5.84,35.22-17,38.8-25.5a1.28,1.28,0,0,1,1.67-.68,1.27,1.27,0,0,1,.67,1.67c-3.9,9.21-21.25,20.79-40.36,26.93A86.91,86.91,0,0,1,160.17,954.16Z"/><path class="cls-6" d="M171.86,964.9s-33.55,248.79,1.68,284.54c14.08,14.29,63,32.77,69.26,3.46,11.28-52.46,32.06-154.88,34.82-209.26Z"/><path class="cls-6" d="M173.54,953.5s-11.09,67.1-3.56,94,189.5,50,201.84,25.47c23-45.83,14.92-89.9,13.59-102C302.3,990.11,233.62,980.05,173.54,953.5Z"/><path class="cls-6" d="M282.88,1072.83s20.07,204.08,27.32,253.5c9,61.25,40.22,192.94,40.22,192.94s29.2.3,50.49-4.67l-16-480.53Z"/><path class="cls-10" d="M270.68,975.69c0,.65-.05,1.3-.08,2-.74,17.49-1.66,42.25-2.14,67.51l-.09,4.19c-.13,8.06-.22,16.14-.25,24a2,2,0,0,0,2,2h0a2,2,0,0,0,2-2c0-7.6.11-15.39.24-23.17,0-1.37,0-2.73.07-4.1.47-25.43,1.4-50.4,2.15-68,0-.81.07-1.6.1-2.38Z"/><path class="cls-10" d="M287.3,975.69c-.05,1.08-.1,2.19-.15,3.32-1.08,22.88-2.74,55.27-3.83,62.91a4.54,4.54,0,0,1-2.28,3.66c-2.1,1.16-5.32,1.09-8.55.53a38.84,38.84,0,0,1-4-.94,46.24,46.24,0,0,1-5.65-2,2,2,0,0,0-1.63,3.71,51.44,51.44,0,0,0,7.19,2.46,37.6,37.6,0,0,0,4.05.85,27.67,27.67,0,0,0,3.85.34,13.68,13.68,0,0,0,6.74-1.43,8.61,8.61,0,0,0,4.32-6.63c1.13-7.89,2.79-40.32,3.87-63.26.06-1.21.11-2.38.16-3.54Z"/><path class="cls-9" d="M153,809.67c.47,4,.88,9,1.25,14.66.13,2,.25,4,.38,6.13,1.05,17.76,2,41.13,3.63,65.37.15,2.17.32,4.37.49,6.55,3.91,52.18-11.81,110.31,10.09,116,145.77,38.2,205.41-2.7,218.5-29.83,6.9-14.33-11.76-91.27-18.4-157.87-.22-2.26-.3-7.25-.52-9.42-1.78-18.13-3.39-34.31-4.71-42.9-9.42-61-7.63-78.61-13.68-97.07s-70-36.81-70-36.81l-66.28,2.81s-26.89,14-53.61,41.77S148,767.25,153,809.67Z"/><path class="cls-11" d="M225.54,799.31c31.61,0,57.94-12.5,74.85-23.37,19.48-12.52,30.69-25.28,31.16-25.82a2,2,0,1,0-3-2.58c-.11.13-11.38,12.94-30.43,25.17-17.5,11.23-45.34,24.26-78.63,22.52a2,2,0,1,0-.21,3.92C221.41,799.26,223.49,799.31,225.54,799.31Z"/><path class="cls-11" d="M213.39,683.74a2.21,2.21,0,0,1,2.67-2.15c33.61,7,59-5.21,74.54-16.87a2.21,2.21,0,0,1,3.1.46l0,0a2.23,2.23,0,0,1-.42,3.14c-2,1.53-4.22,3.06-6.57,4.57a94.52,94.52,0,0,1-51.15,15.15,99.71,99.71,0,0,1-20.35-2.13A2.26,2.26,0,0,1,213.39,683.74Z"/><path class="cls-11" d="M218.42,956.76c30.41,0,61.16-13.74,90.17-40.53a260,260,0,0,0,44.32-54.43,2.21,2.21,0,1,0-3.84-2.2,256.23,256.23,0,0,1-43.56,53.45c-24.82,22.9-64.1,47.81-110.3,36.45a2.21,2.21,0,1,0-1.06,4.3A101.26,101.26,0,0,0,218.42,956.76Z"/><path class="cls-11" d="M237.71,912.93a2,2,0,0,0,.49,0c36.7-8.24,65.59-55.17,66.8-57.16a2.22,2.22,0,1,0-3.79-2.3c-.29.47-29.13,47.31-64,55.14a2.21,2.21,0,0,0,.48,4.37Z"/><path d="M215,479.4a56.9,56.9,0,0,1-9.93,22.88c-3.4.61-7.76.39-13.38-1.14-17.61-4.8-31-.95-41.71,6.43-23.39,16-34.51,48.76-50.62,45.53-14-2.8-6.5-16.46-6.26-16.88-.22.15-11.13,7.82-19.09-1.16-7.16-8.06,4.38-21.71,5.28-22.74-.81.83-10.08,10.15-15.21,1-2.78-5,5.25-54.54,73.52-69,34.81-7.34,54.76,3.59,66,16.08A61.21,61.21,0,0,1,215,479.4Z"/><path class="cls-9" d="M215,479.4a56.9,56.9,0,0,1-9.93,22.88c-3.4.61-7.76.39-13.38-1.14-17.61-4.8-31-.95-41.71,6.43,12-35.06,38.69-44.57,53.58-47.12A61.21,61.21,0,0,1,215,479.4Z"/><path d="M232.64,617s-39.23,5.67-62.34-28c-22-32-20.67-53-16.93-75.64,2.82-17.06,20.74-44.93,57.6-49.74,37.21-4.85,69.33,4.11,83,31.41C319.45,546.09,298.59,626.18,232.64,617Z"/><path class="cls-14" d="M291.18,554.71s8.76-13.57,16.2-2.11,6.17,36.79-10.1,34.8Z"/><path class="cls-7" d="M273.23,620.87,279,654s-22.8,29.09-68.42.17c2.54-12.22,1.65-30.42-4.1-42.82a66.29,66.29,0,0,1,10.91,3.81,35.89,35.89,0,0,0,4.47,1.29C235.8,620.26,256.61,624.36,273.23,620.87Z"/><path class="cls-12" d="M273.23,620.87l2.71,15.69c-14.84-1.33-41.81-5.81-58.6-21.42,1.39.42,2.89.85,4.47,1.29C235.8,620.26,256.61,624.36,273.23,620.87Z"/><path class="cls-7" d="M301.53,553.33c.45,3.49.85,6.78,1.2,9.89,2.67,23.35,2.73,36.33-2.11,42.86-24.51,33-91.94,6.22-94.11,5.35l-.06,0c-.92-2.55-1.78-5.09-2.59-7.6a207.05,207.05,0,0,1-10-61c-3.71-20.15,5.9-40.62,24.07-50.06,18.84-9.78,37.71-3.4,48.79-1.5,16.73,2.86,29.55,22.32,33.51,51.93Q300.92,548.51,301.53,553.33Z"/><path class="cls-12" d="M280.87,548.57h0a1.55,1.55,0,0,0,1.45-1.64c0-.16-.17-4.16,3-5,3.48-.93,6.52,2.49,6.55,2.53a1.55,1.55,0,0,0,2.33-2c-.18-.2-4.36-4.9-9.68-3.48-4.48,1.2-5.41,5.87-5.27,8.17A1.55,1.55,0,0,0,280.87,548.57Z"/><path class="cls-12" d="M256.8,550.75l0,0a1.73,1.73,0,0,1-2.3-.83c-.08-.17-2.06-4.19-5.61-3.33-3.92.95-5.09,5.94-5.1,6a1.73,1.73,0,0,1-3.38-.76c.07-.29,1.68-7.15,7.66-8.59,5.05-1.22,8.46,2.88,9.56,5.22A1.73,1.73,0,0,1,256.8,550.75Z"/><path class="cls-12" d="M277.93,578.73A27.12,27.12,0,0,1,262.61,576a1.48,1.48,0,0,1,1.27-2.68c12.52,5.95,20.88,0,21.23-.22a1.49,1.49,0,0,1,2.07.31,1.47,1.47,0,0,1-.31,2.07A20.29,20.29,0,0,1,277.93,578.73Z"/><path class="cls-14" d="M282.74,588a10.62,10.62,0,0,0,1-.53,1.47,1.47,0,0,0-1.57-2.48c-.2.12-4.72,2.87-9.36.13a1.47,1.47,0,0,0-2.1.7,1.55,1.55,0,0,0,.75,1.91A12.15,12.15,0,0,0,282.74,588Z"/><path class="cls-12" d="M251.35,522.15s6-.18,4.6,5.48-13.93,1.25-21.08,12.28C234.87,539.91,229.6,527.45,251.35,522.15Z"/><path class="cls-14" d="M254.94,564.42c.36,2.75-5,5.71-12,6.62s-12.91-.58-13.27-3.33,5-5.7,12-6.61S254.59,561.68,254.94,564.42Z"/><path class="cls-14" d="M301.53,553.33c.45,3.49.85,6.78,1.2,9.89-6.43.6-11.7-.88-12-3.46S295.13,554.38,301.53,553.33Z"/><path class="cls-12" d="M276.78,561.13a13.88,13.88,0,0,0,3.09-.74,1.6,1.6,0,0,0,.88-.89,1.54,1.54,0,0,0-.07-1.26l-7.87-15.68A1.56,1.56,0,0,0,270,544l7,14a12.31,12.31,0,0,1-6.53-.53,1.56,1.56,0,0,0-1.11,2.92A15.35,15.35,0,0,0,276.78,561.13Z"/><path class="cls-12" d="M216.77,594.55c-.12.45-3.58,12.58-10.26,16.88a0,0,0,0,1,0,0l0,0c-.93-2.54-1.79-5.08-2.59-7.59A29.12,29.12,0,0,0,216.77,594.55Z"/><path class="cls-7" d="M206.46,569.29s-17.7-18.26-26.66-.93c-7.38,14.29,14.26,46.19,30.73,32.14Z"/><path class="cls-12" d="M207.68,594.68l.17,0a1.57,1.57,0,0,0,1.15-1.89,29.27,29.27,0,0,0-20-21.2,1.56,1.56,0,0,0-.78,3h0A26.11,26.11,0,0,1,206,593.5,1.57,1.57,0,0,0,207.68,594.68Z"/><path class="cls-12" d="M192,587.17a1.49,1.49,0,0,0,.93-.47c1.21-1.27,5-4.49,7.71-4.15a1.56,1.56,0,1,0,.37-3.1c-4.81-.59-9.79,4.51-10.35,5.1a1.56,1.56,0,0,0,1.34,2.62Z"/><path d="M188.12,523.06s23.07,16.11,31.14,10.33-8.17-21-8.17-21,32.7,12.57,43.74,5.71S243,499.73,243,499.73s26,17.7,39.14,14.74-2.35-18-2.35-18,15.2,21.9,22.95,18.83S295.3,480,267.25,472,171.9,474.84,188.12,523.06Z"/><path d="M207.06,527.85s12.39,42.12,1.58,43.73-23.9-13.71-20.52-48.52Z"/><path class="cls-12" d="M278,518.68s-5.8,1.35-3,6.47,13.78-2.36,23.52,6.47C298.48,531.62,300.38,518.22,278,518.68Z"/><path class="cls-9" d="M251.19,570.84c-.42,0-.84,0-1.26,0a20.36,20.36,0,1,1,21.56-19.08h0A20.38,20.38,0,0,1,251.19,570.84Zm0-37.47a17.11,17.11,0,1,0,17.1,18.16h0a17.14,17.14,0,0,0-16-18.13C251.87,533.38,251.51,533.37,251.16,533.37Zm18.71,18.25h0Z"/><path class="cls-9" d="M297,564.63c-.42,0-.85,0-1.27,0a20.27,20.27,0,1,1,1.27,0Zm0-37.47a17.11,17.11,0,0,0-12.81,28.45,16.94,16.94,0,0,0,11.77,5.74A17.11,17.11,0,1,0,298,527.2C297.65,527.17,297.3,527.16,297,527.16Z"/><path class="cls-9" d="M269.44,547.93a1.6,1.6,0,0,1-.84-.24,1.62,1.62,0,0,1-.55-2.22,9.71,9.71,0,0,1,5.43-4.15,7.14,7.14,0,0,1,5.63,1.11,1.63,1.63,0,0,1-1.75,2.74,4,4,0,0,0-3.12-.7,6.44,6.44,0,0,0-3.41,2.68A1.65,1.65,0,0,1,269.44,547.93Z"/><path class="cls-9" d="M194.23,561.52a1.59,1.59,0,0,1-1-.37,1.62,1.62,0,0,1-.23-2.28c13.52-16.49,37.75-12.9,38.78-12.74a1.62,1.62,0,0,1-.5,3.21c-.24,0-23.44-3.46-35.77,11.59A1.61,1.61,0,0,1,194.23,561.52Z"/><path class="cls-3" d="M171.51,675.77s36.42,21.83,45.92,69.56-22.72,114-60.25,133.3c0,0-6.23,15.83,2.12,34.82,0,0,81.22-25.92,87.3-129.48s-52.23-119.34-52.23-119.34C187,662.61,175.63,669.67,171.51,675.77Z"/><path class="cls-5" d="M217.72,730.18c5.19-2.36,13.53-5.52,22.24-6.2a7.06,7.06,0,0,1,7.55,6.33c1,9.7,2.7,28.5,2,40.73a7.09,7.09,0,0,1-6.54,6.64l-19.57,1.47a7.08,7.08,0,0,1-7.6-7.28c.29-8.64.27-22.74-2.07-33.83A7.07,7.07,0,0,1,217.72,730.18Z"/><path class="cls-9" d="M230.22,864.45A468.85,468.85,0,0,1,186.85,892c-14.32,8-27.14,13.72-38.13,17.17a86.07,86.07,0,0,1-22.17,4.2c-.88,0-1.76.05-2.62.05a52.87,52.87,0,0,1-14.74-2,45.28,45.28,0,0,1-11.41-5.06A44,44,0,0,1,78.4,879.67a58.28,58.28,0,0,1-1.65-18.56,83,83,0,0,1,1.13-9.38c2.18-12.47,7.94-28.51,17.61-49.06,7-14.86,16.11-32.24,27.09-51.65,18.46-32.62,35.75-59.63,36.47-60.77,1.54-2.39,4.64-6.09,8.1-7.48a261,261,0,0,1,37.15,56c-6.63,10.77-16.26,26.71-26.07,44.06-14.7,26-23.62,44.18-29,56.64,3.88-2,8.27-4.42,13.21-7.32,16.44-9.66,29.93-19.45,30.07-19.54a32.06,32.06,0,0,1,37.75,51.82Z"/><path class="cls-11" d="M109.19,911.45a45.28,45.28,0,0,1-11.41-5.06A44,44,0,0,1,78.4,879.67a58.28,58.28,0,0,1-1.65-18.56C89.43,867.35,115.9,883.94,109.19,911.45Z"/><path class="cls-11" d="M103,869.56a1.76,1.76,0,0,1-1.24-.52,1.74,1.74,0,0,1,0-2.45c14.94-14.59,44.28-28.51,45.52-29.09a1.73,1.73,0,1,1,1.48,3.13c-.3.14-30.06,14.25-44.58,28.43A1.71,1.71,0,0,1,103,869.56Z"/><path class="cls-11" d="M143.07,843.21a2,2,0,0,1-.54-.08c-7-2.29-19.38-.64-19.5-.62a1.73,1.73,0,0,1-.47-3.43c.54-.08,13.3-1.78,21.05.75a1.73,1.73,0,0,1,1.1,2.19A1.71,1.71,0,0,1,143.07,843.21Z"/><path class="cls-11" d="M172.7,798.17a1.73,1.73,0,0,1-1.51-2.58l36.38-64.8a1.73,1.73,0,1,1,3,1.69l-36.38,64.81A1.75,1.75,0,0,1,172.7,798.17Z"/><path class="cls-11" d="M209.08,752.43H198.34a1.74,1.74,0,1,1,0-3.47h10.74a1.74,1.74,0,1,1,0,3.47Z"/><path class="cls-7" d="M186.91,825.55s19.4-27,27.37-29.46,11.53,0,11.53,0l-.51,7.37s28.49-9.1,32.65-6.33.34,9.36.34,9.36,1-1.39,2.43,3.12-3.47,9-3.47,9,1.74,1,2.43,5.19-3.81,9.36-3.81,9.36,2.08,2.77,0,9-25.3,19.75-41.93,20.79S181,845,186.91,825.55Z"/><path class="cls-9" d="M472,843.12a46.52,46.52,0,0,0-3.24-14.79c-.3-.8-.63-1.6-1-2.41-10.36-24.17-30.83-55.27-60.85-92.43-21.68-26.85-40.37-47-41.16-47.79a32.06,32.06,0,0,0-46.91,43.7c8.67,9.3,24.2,26.87,40.21,46.87a32.06,32.06,0,0,0-11.51,56.63c.67.51,16.77,12.69,34.34,24.14a250.31,250.31,0,0,0,27.95,16.24,79.39,79.39,0,0,0,16,5.89,45.47,45.47,0,0,0,10.23,1.22,36.93,36.93,0,0,0,17-4,34.34,34.34,0,0,0,5.54-3.52A35.29,35.29,0,0,0,472,843.12Z"/><path class="cls-11" d="M458.59,872.85a34.34,34.34,0,0,1-5.54,3.52c-4-20,7.75-38.32,15.71-48A46.52,46.52,0,0,1,472,843.12,35.29,35.29,0,0,1,458.59,872.85Z"/><path class="cls-11" d="M446.81,827.28a1.7,1.7,0,0,1-1.08-.38c-11.8-9.44-40.52-21.12-40.81-21.23a1.73,1.73,0,0,1,1.3-3.21c1.2.48,29.49,12,41.67,21.73a1.73,1.73,0,0,1,.27,2.44A1.71,1.71,0,0,1,446.81,827.28Z"/><path class="cls-11" d="M438.17,821.36a1.73,1.73,0,0,1-1.5-.88l-10.42-18.33a1.73,1.73,0,1,1,3-1.72l10.42,18.34a1.73,1.73,0,0,1-.65,2.36A1.79,1.79,0,0,1,438.17,821.36Z"/><path class="cls-3" d="M313.81,656.45s11.82,81.34,20.25,117.8c8.52,36.86,34.8,87.44,37.25,86.45,0,0,2.53-60.36-10.26-92.91s-16.3-87-24.09-99.72S313.81,656.45,313.81,656.45Z"/><path class="cls-7" d="M391.28,821.08s-5.1-15.32-10.54-21.45-13.39-3.91-13.39-3.91l1.52,6.81s-25.1-.09-28.22,3.81,2.49,9,2.49,9-1.41-1-1.37,3.7,6,7.55,6,7.55-1.34,1.51-.74,5.69,6.46,7.77,6.46,7.77-3.26,5.06,2.87,7.43c2.79,1.07,11.24,3.78,23-1.78C384.81,843.19,394.86,836.92,391.28,821.08Z"/><path class="cls-5" d="M349.46,721.88c-5.63-.9-14.52-1.73-23.09-.07a7.06,7.06,0,0,0-5.6,8.11c1.59,9.62,5,28.19,8.91,39.8a7.06,7.06,0,0,0,8.06,4.65L357,770.59a7.07,7.07,0,0,0,5.39-9c-2.57-8.26-6.3-21.86-7-33.17A7,7,0,0,0,349.46,721.88Z"/></svg>